<svg xmlns="http://www.w3.org/2000/svg" viewBox="0 0 500 300">
  <defs>
    <!-- تدرجات لونية متعددة للقطرة -->
    <linearGradient id="dropGradient" x1="0%" y1="0%" x2="100%" y2="100%">
      <stop offset="0%" stop-color="#14B8A6"/>
      <stop offset="50%" stop-color="#0D9488"/>
      <stop offset="100%" stop-color="#0F766E"/>
    </linearGradient>
    
    <!-- تدرج ذهبي للرمز المالي -->
    <linearGradient id="goldGradient" x1="0%" y1="0%" x2="100%" y2="0%">
      <stop offset="0%" stop-color="#F59E0B"/>
      <stop offset="50%" stop-color="#FBBF24"/>
      <stop offset="100%" stop-color="#F59E0B"/>
    </linearGradient>
    
    <!-- تدرج لوني للنص -->
    <linearGradient id="textGradient" x1="0%" y1="0%" x2="100%" y2="0%">
      <stop offset="0%" stop-color="#0F766E"/>
      <stop offset="50%" stop-color="#0D9488"/>
      <stop offset="100%" stop-color="#14B8A6"/>
    </linearGradient>
    
    <!-- فلتر لإضافة توهج للقطرة -->
    <filter id="glow" x="-30%" y="-30%" width="160%" height="160%">
      <feGaussianBlur stdDeviation="6" result="blur"/>
      <feComposite in="SourceGraphic" in2="blur" operator="over"/>
    </filter>
    
    <!-- فلتر لإضافة ظل للنص -->
    <filter id="textShadow" x="-10%" y="-10%" width="120%" height="140%">
      <feDropShadow dx="0" dy="2" stdDeviation="1" flood-opacity="0.3" />
    </filter>
  </defs>
  
  <!-- الهلال الخارجي -->
  <path d="M250,60 
           A100,100 0 0,1 350,160 
           A100,100 0 0,1 250,260 
           A85,85 0 0,0 335,160 
           A85,85 0 0,0 250,75 Z" 
        fill="#0F766E" fill-opacity="0.15"/>
  
  <!-- مجموعة القطرة والعناصر الداخلية -->
  <g filter="url(#glow)">
    <!-- قطرة الماء الرئيسية -->
    <path d="M250,70 
             Q290,110 290,160 
             Q290,210 250,210 
             Q210,210 210,160 
             Q210,110 250,70 Z" 
          fill="url(#dropGradient)"/>
    
    <!-- انعكاس الضوء في القطرة -->
    <path d="M230,100 
             Q245,90 260,100 
             Q270,110 260,120 
             Q240,125 230,100 Z" 
          fill="#FFFFFF" fill-opacity="0.3"/>
    
    <!-- انعكاس ضوء صغير إضافي -->
    <path d="M240,150 
             Q245,145 250,150 
             Q255,155 250,160 
             Q245,155 240,150 Z" 
          fill="#FFFFFF" fill-opacity="0.2"/>
  </g>
  
  <!-- رموز الأسهم داخل القطرة - بنمط هندسي أنيق -->
  <g transform="translate(250,140) scale(0.5) translate(-250,-140)">
    <!-- شكل هندسي سداسي يمثل الشبكة المالية -->
    <path d="M250,90 L290,115 L290,165 L250,190 L210,165 L210,115 Z" 
          fill="none" stroke="#FFFFFF" stroke-width="2" stroke-opacity="0.6"/>
    
    <!-- خط بياني ذهبي متألق -->
    <path d="M210,160 L230,140 L250,150 L270,120 L290,135" 
          fill="none" stroke="url(#goldGradient)" stroke-width="3" stroke-linecap="round" stroke-linejoin="round"/>
    
    <!-- نقاط التأكيد على البيانات -->
    <circle cx="210" cy="160" r="3" fill="#FFFFFF"/>
    <circle cx="230" cy="140" r="3" fill="#FFFFFF"/>
    <circle cx="250" cy="150" r="3" fill="#FFFFFF"/>
    <circle cx="270" cy="120" r="3" fill="#FFFFFF"/>
    <circle cx="290" cy="135" r="3" fill="#FFFFFF"/>
    
    <!-- سهم صاعد يمثل النمو -->
    <path d="M250,165 L250,125 M250,125 L240,135 M250,125 L260,135" 
          stroke="#FFFFFF" stroke-width="2" fill="none" stroke-linecap="round"/>
  </g>
  
  <!-- زخرفة هندسية خفيفة حول القطرة -->
  <circle cx="250" cy="140" r="100" fill="none" stroke="#0D9488" stroke-width="1" stroke-opacity="0.2" stroke-dasharray="2,3"/>
  
  <!-- النص بخط الرقعة -->
  <text x="250" y="260" 
        font-family="'Ruqaa', 'Amiri', 'Scheherazade', 'Traditional Arabic', serif" 
        font-size="60" 
        fill="url(#textGradient)" 
        text-anchor="middle" 
        font-weight="bold"
        filter="url(#textShadow)"
        style="font-variant-alternates: traditional">نقاء</text>
</svg>
